<svg xmlns="http://www.w3.org/2000/svg" width="22" height="13" viewBox="0 0 22 13"><g fill="none" stroke-width="0.5" stroke-linecap="round" transform="translate(0 0) scale(1)"><path stroke="#9E2A22" d="M1.13 0.87l0.74-0.74M3.13 0.87l0.74-0.74M5.13 0.87l0.74-0.74M7.13 0.87l0.74-0.74M9.13 0.87l0.74-0.74M11.13 0.87l0.74-0.74M13.13 0.87l0.74-0.74M15.13 0.87l0.74-0.74M17.13 0.87l0.74-0.74M19.13 0.87l0.74-0.74M21.13 0.87l0.74-0.74M4.13 4.87l0.74-0.74M12.13 4.87l0.74-0.74M19.13 4.87l0.74-0.74M18.13 5.87l0.74-0.74M20.13 5.87l0.74-0.74M17.13 6.87l0.74-0.74M21.13 6.87l0.74-0.74M18.13 7.87l0.74-0.74M20.13 7.87l0.74-0.74M19.13 8.87l0.74-0.74M7.13 9.87l0.74-0.74M8.13 9.87l0.74-0.74M9.13 9.87l0.74-0.74M8.13 10.87l0.74-0.74M1.13 12.87l0.74-0.74M3.13 12.87l0.74-0.74M5.13 12.87l0.74-0.74M7.13 12.87l0.74-0.74M9.13 12.87l0.74-0.74M11.13 12.87l0.74-0.74M13.13 12.87l0.74-0.74M15.13 12.87l0.74-0.74M17.13 12.87l0.74-0.74M19.13 12.87l0.74-0.74M21.13 12.87l0.74-0.74"/><path stroke="#BD3A2C" d="M1.13 0.13l0.74 0.74M3.13 0.13l0.74 0.74M5.13 0.13l0.74 0.74M7.13 0.13l0.74 0.74M9.13 0.13l0.74 0.74M11.13 0.13l0.74 0.74M13.13 0.13l0.74 0.74M15.13 0.13l0.74 0.74M17.13 0.13l0.74 0.74M19.13 0.13l0.74 0.74M21.13 0.13l0.74 0.74M4.13 4.13l0.74 0.74M12.13 4.13l0.74 0.74M19.13 4.13l0.74 0.74M18.13 5.13l0.74 0.74M20.13 5.13l0.74 0.74M17.13 6.13l0.74 0.74M21.13 6.13l0.74 0.74M18.13 7.13l0.74 0.74M20.13 7.13l0.74 0.74M19.13 8.13l0.74 0.74M7.13 9.13l0.74 0.74M8.13 9.13l0.74 0.74M9.13 9.13l0.74 0.74M8.13 10.13l0.74 0.74M1.13 12.13l0.74 0.74M3.13 12.13l0.74 0.74M5.13 12.13l0.74 0.74M7.13 12.13l0.74 0.74M9.13 12.13l0.74 0.74M11.13 12.13l0.74 0.74M13.13 12.13l0.74 0.74M15.13 12.13l0.74 0.74M17.13 12.13l0.74 0.74M19.13 12.13l0.74 0.74M21.13 12.13l0.74 0.74"/><path stroke="#15241B" d="M3.13 2.87l0.74-0.74M4.13 2.87l0.74-0.74M12.13 2.87l0.74-0.74M13.13 2.87l0.74-0.74M2.13 3.87l0.74-0.74M5.13 3.87l0.74-0.74M11.13 3.87l0.74-0.74M14.13 3.87l0.74-0.74M2.13 4.87l0.74-0.74M6.13 4.87l0.74-0.74M10.13 4.87l0.74-0.74M14.13 4.87l0.74-0.74M2.13 5.87l0.74-0.74M5.13 5.87l0.74-0.74M7.13 5.87l0.74-0.74M9.13 5.87l0.74-0.74M11.13 5.87l0.74-0.74M14.13 5.87l0.74-0.74M3.13 6.87l0.74-0.74M4.13 6.87l0.74-0.74M8.13 6.87l0.74-0.74M12.13 6.87l0.74-0.74M13.13 6.87l0.74-0.74M19.13 6.87l0.74-0.74M8.13 7.87l0.74-0.74M8.13 8.87l0.74-0.74"/><path stroke="#2B4034" d="M3.13 2.13l0.74 0.74M4.13 2.13l0.74 0.74M12.13 2.13l0.74 0.74M13.13 2.13l0.74 0.74M2.13 3.13l0.74 0.74M5.13 3.13l0.74 0.74M11.13 3.13l0.74 0.74M14.13 3.13l0.74 0.74M2.13 4.13l0.74 0.74M6.13 4.13l0.74 0.74M10.13 4.13l0.74 0.74M14.13 4.13l0.74 0.74M2.13 5.13l0.74 0.74M5.13 5.13l0.74 0.74M7.13 5.13l0.74 0.74M9.13 5.13l0.74 0.74M11.13 5.13l0.74 0.74M14.13 5.13l0.74 0.74M3.13 6.13l0.74 0.74M4.13 6.13l0.74 0.74M8.13 6.13l0.74 0.74M12.13 6.13l0.74 0.74M13.13 6.13l0.74 0.74M19.13 6.13l0.74 0.74M8.13 7.13l0.74 0.74M8.13 8.13l0.74 0.74"/></g></svg>